<?xml version="1.0" encoding="UTF-8"?>
<!DOCTYPE svg PUBLIC "-//W3C//DTD SVG 1.1//EN" "http://www.w3.org/Graphics/SVG/1.1/DTD/svg11.dtd">
<!-- Creator: CorelDRAW -->
<svg xmlns="http://www.w3.org/2000/svg" xml:space="preserve" width="89.7832mm" height="18.9945mm" version="1.1" style="shape-rendering:geometricPrecision; text-rendering:geometricPrecision; image-rendering:optimizeQuality; fill-rule:evenodd; clip-rule:evenodd"
viewBox="0 0 6120.31 1294.81"
 xmlns:xlink="http://www.w3.org/1999/xlink"
 xmlns:xodm="http://www.corel.com/coreldraw/odm/2003">
 <defs>
  <style type="text/css">
   <![CDATA[
    .fil1 {fill:#00CCFF}
    .fil3 {fill:#2843A1}
    .fil2 {fill:#FF0066}
    .fil0 {fill:white;fill-rule:nonzero}
   ]]>
  </style>
 </defs>
 <g id="Camada_x0020_1">
  <metadata id="CorelCorpID_0Corel-Layer"/>
  <path class="fil0" d="M1824.79 312.85c100.34,0 186.29,35.37 257.53,106.45 71.08,71.07 106.62,156.7 106.62,257.2 0,92.24 -30.91,172.9 -92.57,241.67 -60.66,68.43 -136.2,108.1 -226.62,119.01l0 89.09c0,12.4 -4.3,22.82 -13.06,31.58 -8.76,8.43 -19.18,12.56 -31.4,12.56l-1 0c-12.39,0 -22.65,-4.13 -31.07,-12.56 -8.77,-8.76 -13.06,-19.18 -13.06,-31.58l0 -89.09c-90.42,-10.91 -166.12,-50.59 -227.11,-119.01 -61.33,-68.77 -92.07,-149.43 -92.07,-241.67 0,-100.5 35.54,-186.12 106.61,-257.2 71.08,-71.08 156.7,-106.45 257.2,-106.45zm0.5 470.1c12.23,0 22.65,4.46 31.4,13.06 8.76,8.76 13.06,19.18 13.06,31.08l0 120c65.62,-10.58 120.17,-41.32 163.64,-92.4 43.97,-51.41 65.95,-110.75 65.95,-178.19 0,-75.87 -26.78,-140.66 -80.5,-194.22 -53.56,-53.55 -118.19,-80.33 -194.06,-80.33 -75.54,0 -140.17,26.78 -193.73,80.33 -53.72,53.56 -80.5,118.35 -80.5,194.22 0,67.77 21.98,127.11 65.95,178.19 43.47,51.08 98.19,81.82 163.64,92.4l0 -120c0,-11.9 4.29,-22.32 13.06,-31.08 8.43,-8.6 18.68,-13.06 31.07,-13.06l1 0zm512.06 -227.11c0,-12.23 -4.29,-22.65 -13.05,-31.4 -8.76,-8.76 -19.01,-13.06 -31.08,-13.06l-1.32 0c-12.07,0 -22.31,4.3 -31.08,13.06 -8.76,8.76 -13.05,19.18 -13.05,31.4l0 264.97c0,60.34 21.49,112.07 64.47,154.88 42.81,42.98 94.71,64.47 155.37,64.47 60.34,0 112.07,-21.49 155.05,-64.47 42.82,-42.81 64.3,-94.55 64.3,-154.88l0 -264.97c0,-12.23 -4.29,-22.65 -13.06,-31.4 -8.43,-8.76 -18.68,-13.06 -30.91,-13.06l-1 0c-12.23,0 -22.81,4.3 -31.57,13.06 -8.6,8.76 -13.06,19.18 -13.06,31.4l0 264.97c0,35.87 -12.56,66.45 -37.68,91.9 -25.62,25.29 -56.2,37.85 -92.07,37.85 -36.2,0 -66.94,-12.56 -92.4,-37.85 -25.29,-25.45 -37.85,-56.03 -37.85,-91.9l0 -264.97zm481.65 -44.47c12.24,0 22.48,4.3 30.91,13.06 8.76,8.76 13.05,19.18 13.05,31.4l0 440.19c0,12.39 -4.29,22.65 -13.05,31.07 -8.43,8.77 -18.68,13.06 -30.91,13.06l-0.99 0c-12.24,0 -22.82,-4.29 -31.58,-13.06 -8.6,-8.43 -13.05,-18.68 -13.05,-31.07l0 -440.19c0,-12.23 4.46,-22.65 13.05,-31.4 8.76,-8.76 19.34,-13.06 31.58,-13.06l0.99 0zm-0.5 -92.07c-14.87,0 -27.44,-5.13 -37.85,-15.54 -10.25,-10.25 -15.38,-22.81 -15.38,-37.68 0,-14.55 5.13,-26.95 15.38,-37.36 10.41,-10.25 22.97,-15.37 37.85,-15.37 14.55,0 26.95,5.13 37.19,15.37 10.75,10.42 16.04,22.82 16.04,37.36 0,14.87 -5.29,27.44 -16.04,37.68 -10.25,10.42 -22.65,15.54 -37.19,15.54zm381.49 92.07c27.44,0 54.05,4.13 79.84,12.56 20.66,6.45 31.07,20.5 31.07,42.15l0 2.32c0,14.87 -6.11,26.78 -18.02,35.37 -12.23,9.09 -25.45,11.4 -39.67,6.78 -17.19,-5.79 -34.88,-8.6 -53.23,-8.6 -48.43,0 -89.76,17.03 -123.98,51.24 -33.89,34.22 -50.91,75.54 -50.91,123.98 0,48.1 17.02,89.26 50.91,123.47 34.22,34.22 75.54,51.41 123.98,51.41 18.34,0 36.03,-2.82 53.23,-8.27 14.21,-4.46 27.44,-2.48 39.67,6.29 11.9,8.76 18.02,20.66 18.02,35.86 0,21.33 -10.41,35.38 -31.07,42.15 -25.79,8.1 -52.4,12.07 -79.84,12.07 -73.06,0 -135.38,-25.79 -186.96,-77.53 -51.73,-51.57 -77.52,-113.89 -77.52,-186.95 0,-72.89 25.79,-135.21 77.52,-186.78 51.58,-51.74 113.89,-77.53 186.96,-77.53zm210.39 -198.52c12.07,0 22.32,4.13 31.08,12.56 8.76,8.77 13.05,19.18 13.05,31.41l0 350.1 32.9 0c44.96,0 84.13,-14.87 117.69,-44.96 32.89,-30.08 51.74,-66.94 56.2,-110.91 1.32,-11.24 6.12,-20.66 14.55,-28.11 8.43,-7.76 18.19,-11.57 29.59,-11.57l1.32 0c13.05,0 23.8,4.79 32.56,14.55 8.6,9.58 12.39,21.16 11.07,34.38 -7.44,76.86 -42.31,138.52 -104.63,184.97 38.84,23.47 69.42,55.04 92.07,94.38 23.48,40.66 35.38,84.63 35.38,131.74l0 24.63c0,12.39 -4.46,22.65 -13.06,31.07 -8.76,8.77 -19.18,13.06 -31.08,13.06l-1.49 0c-11.9,0 -22.15,-4.29 -30.91,-13.06 -8.77,-8.43 -13.06,-18.68 -13.06,-31.07l0 -24.63c-0.33,-48.11 -17.52,-89.1 -51.41,-122.98 -34.22,-33.89 -75.38,-50.91 -123.48,-50.91l-54.22 0 0 198.52c0,12.39 -4.29,22.65 -13.05,31.07 -8.76,8.77 -19.01,13.06 -31.08,13.06l-1.32 0c-12.07,0 -22.31,-4.29 -31.08,-13.06 -8.76,-8.43 -13.05,-18.68 -13.05,-31.07l0 -639.2c0,-12.24 4.29,-22.65 13.05,-31.41 8.77,-8.43 19.01,-12.56 31.08,-12.56l1.32 0zm681.33 289.1c48.43,0 89.59,17.03 123.48,51.24 34.21,34.22 51.24,75.54 51.24,123.98 0,48.1 -17.03,89.26 -51.24,123.47 -33.89,34.22 -75.05,51.41 -123.48,51.41 -48.43,0 -89.76,-17.19 -123.97,-51.41 -33.89,-34.21 -50.91,-75.37 -50.91,-123.47 0,-48.43 17.03,-89.76 50.91,-123.98 34.21,-34.21 75.54,-51.24 123.97,-51.24zm-220.34 -289.1c-12.07,0 -22.31,4.13 -31.08,12.56 -8.76,8.77 -13.05,19.18 -13.05,31.41l0 420.35c0.33,72.73 26.28,134.71 78.02,185.95 51.24,51.41 113.4,77.03 186.45,77.03 72.9,0 135.22,-25.79 186.79,-77.53 51.74,-51.57 77.53,-113.89 77.53,-186.95 0,-72.89 -25.79,-135.21 -77.53,-186.78 -51.57,-51.74 -113.89,-77.53 -186.79,-77.53 -66.94,0 -125.13,22.15 -174.88,66.29l0 -220.84c0,-12.24 -4.29,-22.65 -13.05,-31.41 -8.76,-8.43 -19.01,-12.56 -31.08,-12.56l-1.32 0zm603.64 0c11.9,0 22.15,4.13 30.91,12.56 8.76,8.77 13.06,19.18 13.06,31.41l0 639.2c0,12.39 -4.3,22.65 -13.06,31.07 -8.76,8.77 -19.01,13.06 -30.91,13.06l-1.49 0c-11.9,0 -22.31,-4.29 -31.07,-13.06 -8.6,-8.43 -13.06,-18.68 -13.06,-31.07l0 -639.2c0,-12.24 4.46,-22.65 13.06,-31.41 8.76,-8.43 19.17,-12.56 31.07,-12.56l1.49 0zm396.35 198.52c72.9,0 135.22,25.79 186.79,77.53 51.74,51.57 77.53,113.89 77.53,186.78l0 220.35c0,12.39 -4.3,22.65 -13.06,31.07 -8.76,8.77 -19.01,13.06 -30.91,13.06l-1.49 0c-11.9,0 -22.31,-4.29 -31.07,-13.06 -8.6,-8.43 -13.06,-18.68 -13.06,-31.07l0 -22.15c-50.08,44.14 -108.27,66.29 -174.72,66.29 -73.06,0 -135.37,-25.79 -186.95,-77.53 -51.73,-51.57 -77.52,-113.89 -77.52,-186.95 0,-72.89 25.79,-135.21 77.52,-186.78 51.58,-51.74 113.89,-77.53 186.95,-77.53zm0 89.59c-48.43,0 -89.76,17.02 -123.97,51.24 -33.89,34.21 -50.91,75.37 -50.91,123.47 0,48.43 17.03,89.76 50.91,123.98 34.21,33.89 75.54,50.91 123.97,50.91 48.43,0 89.59,-17.02 123.48,-50.91 34.21,-34.22 51.24,-75.54 51.24,-123.98 0,-48.1 -17.03,-89.26 -51.24,-123.47 -33.89,-34.22 -75.05,-51.24 -123.48,-51.24zm422.48 395.06c0,12.39 -4.29,22.65 -13.05,31.07 -8.76,8.77 -19.01,13.06 -31.08,13.06l-1.32 0c-12.07,0 -22.31,-4.29 -31.08,-13.06 -8.76,-8.43 -13.05,-18.68 -13.05,-31.07l0 -264.8c0,-60.67 21.49,-112.57 64.47,-155.54 42.81,-42.82 94.71,-64.3 155.37,-64.3 60.34,0 112.07,21.49 155.05,64.3 42.82,42.97 64.3,94.88 64.3,155.54l0 264.8c0,12.39 -4.29,22.65 -13.06,31.07 -8.43,8.77 -18.68,13.06 -30.91,13.06l-1 0c-12.23,0 -22.81,-4.29 -31.57,-13.06 -8.6,-8.43 -13.06,-18.68 -13.06,-31.07l0 -264.8c0,-35.87 -12.56,-66.45 -37.68,-92.07 -25.62,-25.45 -56.2,-38.18 -92.07,-38.18 -36.2,0 -66.94,12.73 -92.4,38.18 -25.29,25.62 -37.85,56.2 -37.85,92.07l0 264.8zm463.64 -683.17c12.07,0 22.32,4.13 31.08,12.56 8.76,8.77 13.05,19.18 13.05,31.41l0 350.1 32.9 0c44.96,0 84.13,-14.87 117.69,-44.96 32.89,-30.08 51.74,-66.94 56.2,-110.91 1.32,-11.24 6.12,-20.66 14.55,-28.11 8.43,-7.76 18.19,-11.57 29.59,-11.57l1.32 0c13.05,0 23.8,4.79 32.56,14.55 8.6,9.58 12.39,21.16 11.07,34.38 -7.44,76.86 -42.31,138.52 -104.63,184.97 38.84,23.47 69.42,55.04 92.07,94.38 23.48,40.66 35.38,84.63 35.38,131.74l0 24.63c0,12.39 -4.46,22.65 -13.06,31.07 -8.76,8.77 -19.18,13.06 -31.08,13.06l-1.49 0c-11.9,0 -22.15,-4.29 -30.91,-13.06 -8.77,-8.43 -13.06,-18.68 -13.06,-31.07l0 -24.63c-0.33,-48.11 -17.52,-89.1 -51.41,-122.98 -34.22,-33.89 -75.38,-50.91 -123.48,-50.91l-54.22 0 0 198.52c0,12.39 -4.29,22.65 -13.05,31.07 -8.76,8.77 -19.01,13.06 -31.08,13.06l-1.32 0c-12.07,0 -22.31,-4.29 -31.08,-13.06 -8.76,-8.43 -13.05,-18.68 -13.05,-31.07l0 -639.2c0,-12.24 4.29,-22.65 13.05,-31.41 8.77,-8.43 19.01,-12.56 31.08,-12.56l1.32 0z"/>
  <g id="_2104944577264">
   <path class="fil1" d="M349.85 257.6l617.39 0c128.28,0 233.23,104.96 233.23,233.24l0 598.18c0,113.19 -92.61,205.79 -205.79,205.79 -16.5,0 -48.15,-1 -75.18,-25.23 -261.93,-257.93 -452.42,-414.47 -702.73,-671.73 -116.46,-119.69 -38.41,-340.25 133.08,-340.25z"/>
   <path class="fil2" d="M882.25 1043.74l-649.01 0c-128.27,0 -233.24,-105.65 -233.24,-234.78l0 -564.11c0,-208.33 166.98,-295.94 296.35,-214.99l713.43 694.21c91.92,91.92 59.28,319.67 -127.53,319.67z"/>
   <path class="fil3" d="M349.85 257.6l180.54 0 479.38 466.47c91.92,91.92 59.29,319.67 -127.52,319.67l-200.56 0c-155.11,-144.41 -302.86,-279.33 -464.92,-445.88 -116.46,-119.7 -38.41,-340.25 133.08,-340.25z"/>
  </g>
 </g>
</svg>
