<?xml version="1.0" encoding="UTF-8"?>
<!DOCTYPE svg PUBLIC "-//W3C//DTD SVG 1.1//EN" "http://www.w3.org/Graphics/SVG/1.1/DTD/svg11.dtd">
<!-- Creator: CorelDRAW -->
<svg xmlns="http://www.w3.org/2000/svg" xml:space="preserve" width="104.14mm" height="16.6029mm" version="1.1" style="shape-rendering:geometricPrecision; text-rendering:geometricPrecision; image-rendering:optimizeQuality; fill-rule:evenodd; clip-rule:evenodd"
viewBox="0 0 7965.87 1269.99"
 xmlns:xlink="http://www.w3.org/1999/xlink"
 xmlns:xodm="http://www.corel.com/coreldraw/odm/2003">
 <defs>
  <style type="text/css">
   <![CDATA[
    .fil3 {fill:#003399}
    .fil0 {fill:#00CCFF}
    .fil1 {fill:#FF0066}
    .fil2 {fill:white;fill-rule:nonzero}
   ]]>
  </style>
 </defs>
 <g id="Camada_x0020_1">
  <metadata id="CorelCorpID_0Corel-Layer"/>
  <path class="fil0" d="M343.14 252.66l605.56 0c125.82,0 228.77,102.94 228.77,228.77l0 586.72c0,111.01 -90.83,201.85 -201.86,201.85l-48.54 0c-256.91,-252.98 -468.93,-431.26 -714.45,-683.6 -114.23,-117.4 -37.68,-333.73 130.53,-333.73z"/>
  <path class="fil1" d="M865.33 1023.73l-636.57 0c-125.81,0 -228.77,-103.62 -228.77,-230.27l0 -553.31c0,-204.33 163.78,-290.27 290.66,-210.87l699.75 680.91c90.16,90.16 58.15,313.54 -125.08,313.54z"/>
  <path class="fil2" d="M1981.23 287.07c-99.13,0 -183.8,35.11 -253.63,104.94 -70.03,70.03 -104.94,154.5 -104.94,253.63 0,99.32 34.91,183.8 105.14,254.02 70.23,70.23 154.51,105.14 253.43,105.14 99.12,0 183.6,-34.91 253.63,-105.14 69.82,-70.23 104.94,-154.71 104.94,-254.02 0,-99.13 -35.12,-183.6 -104.94,-253.63 -70.03,-69.83 -154.51,-104.94 -253.63,-104.94zm201.05 797.79c9.03,5.42 18.26,11.63 28.09,18.86 27.49,14.45 46.16,23.28 55.98,26.29 4.21,1.2 8.43,1.81 12.24,1.81 6.62,0 13.24,-2 20.06,-5.82 10.04,-5.82 16.86,-14.44 19.87,-25.88 1.21,-3.61 2.61,-18.06 4.21,-43.54l122.8 0c-2.81,38.53 -5.82,64.01 -9.43,76.45 -12.44,43.55 -38.53,76.25 -78.05,98.12 -25.08,14.64 -51.36,21.87 -78.86,21.87 -15.25,0 -30.5,-2.21 -45.95,-6.43 -25.08,-6.82 -58.59,-23.67 -100.33,-50.56 -33.71,-17.65 -57.19,-28.49 -70.03,-32.5 -7.42,-1.81 -14.45,-2.81 -21.26,-2.81 -11.64,0 -23.08,3.01 -34.12,9.43 -17.85,10.04 -29.69,25.49 -35.11,45.75 -0.8,2 -2.21,14.85 -4.21,38.93l-122.8 0c3.01,-37.32 6.22,-61.6 9.43,-73.03 6.62,-23.88 16.85,-44.95 30.5,-63.41 -92.5,-17.65 -173.97,-61.8 -244.59,-132.22 -93.91,-94.11 -141.06,-207.68 -141.06,-340.51 0,-132.84 47.15,-246.21 141.06,-340.31 94.1,-94.11 207.67,-141.06 340.51,-141.06 132.83,0 246.2,46.95 340.31,141.06 94.1,94.1 141.06,207.47 141.06,340.31 0,132.83 -46.96,246.4 -141.06,340.51 -42.34,42.34 -88.69,75.25 -139.25,98.72zm698.87 40.53c-76.45,0 -138.05,-23.27 -184.6,-70.02 -46.75,-46.55 -70.63,-104.95 -71.63,-175.17l0 -367.99 122.2 0 0 363.38c0,34.91 12.64,64.81 38.12,89.89 25.48,25.08 57.19,37.72 95.31,37.72 34.91,0 65.21,-12.44 90.9,-37.32 25.48,-24.88 38.32,-54.97 38.32,-90.29l0 -363.38 121.8 0 0 367.99c-1.21,70.23 -24.88,128.62 -71.23,175.17 -46.55,46.75 -106.35,70.02 -179.18,70.02zm558.42 -613.18l0 604.96 -121.8 0 0 -604.96 121.8 0zm-61.2 -248.62c23.48,0 43.75,8.23 60.6,24.68 16.86,16.45 25.28,36.72 25.28,60.6 0,23.88 -8.42,44.14 -25.28,60.6 -16.85,16.45 -37.12,24.68 -60.6,24.68 -23.07,0 -43.14,-8.22 -59.99,-24.68 -16.85,-16.45 -25.28,-36.72 -25.28,-60.6 0,-23.88 8.43,-44.14 25.28,-60.6 16.85,-16.45 36.92,-24.68 59.99,-24.68zm726.56 646.1l121.8 43.55c-29.9,41.13 -51.37,68.22 -64.81,81.66 -65.42,65.42 -144.27,98.12 -236.77,98.12 -92.1,0 -170.95,-32.7 -236.37,-98.12 -65.41,-65.42 -98.12,-144.47 -98.12,-236.97 0,-92.49 32.71,-171.35 98.12,-236.77 65.42,-65.62 144.27,-98.32 236.37,-98.32 92.5,0 171.36,32.7 236.77,98.12 13.44,13.44 34.91,40.33 64.81,80.66l-121.8 44.75c-15.65,-19.27 -26.28,-31.71 -31.71,-37.12 -40.73,-40.73 -90.09,-61.2 -148.08,-61.2 -57.58,0 -106.94,20.47 -147.87,61.4 -40.94,41.13 -61.4,90.49 -61.4,148.48 0,57.59 20.46,106.95 61.4,147.88 40.93,40.93 90.29,61.4 147.87,61.4 57.99,0 107.56,-20.26 148.69,-61.2 5.02,-5.42 15.45,-17.46 31.1,-36.32zm627.24 -397.48l-164.14 202.25 228.15 402.71 -145.08 0 -164.73 -301.58 -5.22 6.42 0 295.16 -122.2 0 0 -831.9 122.2 0 0 342.31 94.11 -115.37 156.91 0zm303.38 238.77l0 94.51c7.43,36.92 26.29,70.43 56.38,100.53 41.14,40.94 90.7,61.2 148.69,61.2 57.99,0 107.55,-20.26 148.49,-61.2 40.93,-40.73 61.39,-90.09 61.39,-148.08 0,-57.58 -20.46,-106.94 -61.39,-148.08 -40.94,-41.13 -90.5,-61.8 -148.49,-61.8 -57.99,0 -107.55,20.67 -148.69,61.8 -30.09,30.1 -48.96,63.81 -56.38,101.13zm0 290.95l0 75.25 -121.59 0 0 -940.66 121.59 0 0 377.43c58.79,-60.6 127.21,-91.09 205.07,-91.09 92.5,0 171.36,32.7 236.77,98.32 65.22,65.42 97.72,144.27 97.72,236.77 0,92.5 -32.5,171.56 -97.72,236.97 -65.41,65.42 -144.26,98.12 -236.77,98.12 -77.85,0 -146.28,-30.3 -205.07,-91.09zm823.68 -865.82l0 941.06 -122.2 0 0 -941.06 122.2 0zm700.68 667.17l0 -89.5c-7.02,-37.92 -25.88,-72.43 -56.38,-103.33 -41.34,-40.73 -90.7,-61.2 -148.28,-61.2 -57.99,0 -107.35,20.47 -148.48,61.2 -40.94,40.73 -61.4,90.09 -61.4,148.08 0,57.59 20.46,106.95 61.4,147.88 41.13,40.93 90.49,61.4 148.48,61.4 57.58,0 106.94,-20.47 148.28,-61.2 30.5,-30.9 49.36,-65.41 56.38,-103.33zm0 -288.74l0 -42.33 122.2 0 0 605.57 -122.2 0 0 -75.85c-58.79,60.8 -127.01,91.09 -204.66,91.09 -92.5,0 -171.36,-32.5 -236.57,-97.92 -65.21,-65.21 -97.92,-144.07 -97.92,-236.57 0,-92.5 32.71,-171.36 97.92,-236.57 65.21,-65.21 144.07,-97.92 236.57,-97.92 77.65,0 145.87,30.1 204.66,90.49zm421.37 119.99l0 442.64 -122.2 0 0 -604.96 122.2 0 0 70.63c25.48,-69.03 76.65,-103.53 153.5,-103.53 65.42,0 117.38,23.27 155.91,69.62 38.73,46.55 58.59,104.74 59.79,174.97l0 393.28 -121.79 0 0 -388.66c0,-34.71 -12.64,-64.61 -38.12,-89.49 -25.49,-24.88 -55.98,-37.32 -91.1,-37.32 -34.91,0 -65.01,12.04 -90.49,36.32 -14.24,14.65 -23.48,26.69 -27.69,36.52zm920.59 -162.32l-164.14 202.25 228.15 402.71 -145.08 0 -164.73 -301.58 -5.22 6.42 0 295.16 -122.2 0 0 -831.9 122.2 0 0 342.31 94.11 -115.37 156.91 0z"/>
  <path class="fil3" d="M343.14 252.66l177.08 0 470.19 457.53c90.16,90.16 58.15,313.54 -125.08,313.54l-196.71 0c-152.14,-141.65 -297.06,-273.98 -456.01,-437.34 -114.23,-117.4 -37.68,-333.73 130.53,-333.73z"/>
 </g>
</svg>
